<?xml version="1.0" standalone="no"?>
<!DOCTYPE svg PUBLIC "-//W3C//DTD SVG 20010904//EN"
 "http://www.w3.org/TR/2001/REC-SVG-20010904/DTD/svg10.dtd">
<svg version="1.0" xmlns="http://www.w3.org/2000/svg"
 width="800.000000pt" height="800.000000pt" viewBox="0 0 800.000000 800.000000"
 preserveAspectRatio="xMidYMid meet">
<metadata>
Created by potrace 1.15, written by Peter Selinger 2001-2017
</metadata>
<g transform="translate(0.000000,800.000000) scale(0.100000,-0.100000)"
fill="#000000" stroke="none">
<path d="M2880 7491 c-102 -32 -210 -118 -328 -259 -40 -49 -173 -236 -282
-396 -102 -151 -233 -233 -500 -316 -452 -139 -510 -164 -626 -272 -177 -166
-217 -320 -207 -788 7 -271 -4 -375 -46 -478 -34 -83 -109 -198 -222 -342
-178 -226 -254 -357 -289 -494 -59 -232 16 -430 295 -780 163 -205 227 -323
251 -458 11 -63 14 -160 13 -398 -1 -251 1 -330 14 -390 45 -217 136 -340 327
-439 80 -41 206 -86 410 -146 174 -51 298 -101 369 -147 82 -54 182 -165 288
-320 237 -350 327 -444 484 -510 169 -71 343 -55 669 63 197 71 331 109 425
121 127 16 239 -5 480 -88 369 -128 498 -155 630 -134 224 36 340 134 590 500
237 346 315 406 670 509 370 108 506 171 612 283 62 66 103 145 134 258 22 81
23 103 25 440 2 371 6 417 48 521 34 84 76 150 188 297 146 190 222 300 258
372 95 190 108 332 45 513 -36 102 -104 210 -263 420 -178 234 -215 295 -251
407 -22 71 -31 227 -24 455 13 467 -47 645 -263 792 -121 82 -191 111 -484
199 -250 76 -349 116 -416 169 -63 49 -141 141 -226 263 -182 261 -217 310
-275 372 -69 75 -178 152 -267 189 -49 21 -82 26 -169 29 -139 5 -198 -9 -492
-109 -449 -155 -534 -155 -970 0 -244 87 -345 111 -469 110 -68 0 -119 -6
-156 -18z m410 -165 c52 -14 158 -48 235 -76 77 -28 191 -64 253 -80 210 -55
351 -38 677 80 342 124 498 138 655 60 123 -62 206 -152 390 -420 174 -255
261 -341 414 -410 36 -17 163 -60 283 -96 120 -36 250 -79 290 -96 190 -78
300 -193 348 -364 14 -48 19 -127 25 -434 8 -420 10 -438 81 -570 23 -41 86
-135 142 -208 258 -338 327 -470 327 -627 0 -157 -69 -289 -327 -627 -56 -73
-119 -167 -142 -208 -71 -132 -73 -150 -81 -570 -6 -307 -11 -386 -25 -434
-48 -171 -158 -286 -348 -364 -40 -17 -171 -60 -291 -97 -405 -122 -463 -164
-696 -505 -184 -268 -267 -358 -390 -420 -157 -78 -313 -64 -655 60 -402 146
-528 146 -930 0 -342 -124 -498 -138 -655 -60 -123 62 -206 152 -390 420 -176
257 -253 335 -406 406 -39 18 -169 63 -290 99 -120 37 -251 80 -291 97 -190
78 -300 193 -348 364 -14 48 -19 127 -25 434 -8 420 -10 438 -81 570 -23 41
-86 135 -142 208 -258 338 -327 470 -327 627 0 157 69 289 327 627 56 73 119
167 142 208 71 132 73 150 81 570 6 307 11 386 25 434 48 171 158 286 348 364
40 17 170 60 290 96 120 36 247 79 283 96 153 69 240 155 414 410 214 312 314
408 480 456 66 20 215 11 330 -20z"/>
<path d="M2996 7319 c-109 -18 -233 -104 -334 -232 -27 -34 -97 -131 -154
-215 -223 -325 -313 -395 -628 -492 -74 -23 -184 -57 -245 -76 -282 -88 -403
-193 -461 -399 -15 -51 -18 -115 -19 -410 -2 -320 -4 -356 -23 -426 -37 -135
-96 -234 -300 -500 -111 -145 -154 -213 -189 -300 -51 -127 -51 -241 0 -369
35 -86 78 -154 189 -299 204 -266 263 -365 300 -500 19 -70 21 -106 23 -426 1
-295 4 -359 19 -410 58 -206 179 -311 461 -399 61 -19 171 -53 245 -76 315
-97 405 -167 628 -492 182 -266 261 -352 377 -409 151 -74 272 -62 637 65 262
91 341 110 468 110 127 0 206 -19 468 -110 365 -127 486 -139 637 -65 116 57
195 143 377 409 223 325 313 395 628 492 74 23 185 57 245 76 282 88 403 193
461 399 15 51 18 115 19 410 2 320 4 356 23 426 37 135 96 234 300 500 111
145 154 213 189 300 51 127 51 241 0 369 -35 86 -78 154 -189 299 -204 266
-263 365 -300 500 -19 70 -21 106 -23 426 -1 295 -4 359 -19 410 -58 206 -179
311 -461 399 -60 19 -171 53 -245 76 -315 97 -405 167 -628 492 -182 266 -261
352 -377 409 -149 73 -255 63 -625 -61 -311 -103 -354 -114 -480 -114 -126 0
-169 11 -480 114 -311 104 -393 120 -514 99z m2489 -1369 c55 -12 127 -30 160
-42 289 -97 543 -310 656 -551 86 -185 92 -419 15 -552 -54 -92 -129 -149
-273 -209 -132 -55 -325 -195 -303 -221 10 -12 -68 -311 -134 -515 -21 -64
-24 -70 -25 -40 -1 19 10 134 24 255 14 121 25 223 25 227 0 9 -232 84 -450
146 -462 131 -849 192 -1218 192 l-172 0 -83 -44 c-108 -58 -202 -86 -286 -85
l-66 1 55 17 c137 44 269 134 461 316 165 157 209 191 304 236 85 40 167 59
249 59 112 0 251 -53 331 -124 l40 -36 -46 20 c-84 36 -171 53 -264 52 -157
-1 -278 -54 -429 -189 -48 -43 -113 -100 -144 -127 -32 -27 -49 -47 -39 -43
10 4 64 16 119 27 472 97 1099 -14 1648 -290 l77 -39 54 56 c75 78 155 143
230 188 130 78 206 160 230 249 26 97 1 263 -57 379 -63 124 -202 277 -329
362 -142 94 -341 174 -525 210 -47 9 -147 19 -222 22 -129 5 -142 4 -225 -22
-239 -74 -414 -212 -503 -395 -24 -50 -30 -57 -24 -30 18 93 76 197 161 290
l50 55 -86 1 c-47 0 -176 2 -286 4 -285 5 -422 -21 -605 -116 -226 -117 -444
-352 -537 -580 -129 -316 -55 -614 180 -728 88 -43 163 -57 288 -54 l113 3 32
103 c18 57 35 106 38 109 5 5 1 -44 -18 -220 l-12 -108 24 6 c228 57 431 79
732 79 353 0 564 -31 825 -121 120 -42 347 -153 312 -153 -4 0 -67 11 -140 24
-371 69 -559 81 -1249 81 -329 0 -598 2 -598 5 0 3 12 43 25 89 14 47 24 86
22 87 -2 2 -27 -3 -57 -12 -30 -8 -94 -17 -142 -21 -314 -22 -549 190 -574
518 -10 128 30 316 94 444 109 220 326 441 536 547 262 132 487 150 901 73
192 -36 218 -35 285 10 110 74 214 117 340 140 111 21 357 13 485 -15z m-2728
-1525 c92 -27 167 -112 215 -241 31 -85 31 -313 0 -428 -30 -109 -83 -212
-144 -280 -28 -32 -47 -61 -42 -65 22 -20 689 -463 767 -510 112 -67 253 -133
347 -162 139 -43 328 -27 460 39 53 26 55 29 67 85 15 70 34 107 79 157 l35
38 -52 17 c-67 22 -121 72 -150 138 -21 45 -24 67 -24 172 0 66 3 136 7 155
l7 35 -33 -38 c-45 -50 -102 -159 -142 -272 -30 -85 -34 -90 -62 -93 -42 -4
-102 13 -145 42 -35 24 -36 24 -53 5 -26 -29 -96 -59 -137 -59 -76 0 -142 49
-167 125 -6 19 -15 35 -19 35 -4 0 -22 -19 -39 -43 -17 -24 -51 -66 -77 -95
-41 -46 -51 -52 -86 -52 -52 0 -117 34 -131 68 -15 38 -12 157 6 224 33 124
113 250 180 285 113 59 300 57 357 -3 39 -42 6 -95 -68 -110 -30 -6 -32 -4
-35 26 -10 109 -147 10 -230 -167 -39 -82 -67 -218 -50 -235 22 -21 24 -16
164 280 28 59 68 82 140 82 72 0 92 -22 78 -85 -15 -68 -23 -173 -16 -210 9
-47 36 -46 74 3 47 59 60 92 82 208 30 156 48 212 69 224 39 20 158 -19 184
-62 8 -13 5 -25 -16 -55 -33 -49 -56 -135 -62 -243 l-6 -85 49 137 c58 164
122 299 156 333 29 29 65 32 143 12 63 -17 122 -54 129 -83 3 -13 -5 -42 -19
-70 -88 -174 -90 -390 -4 -447 30 -19 79 -29 95 -18 11 6 8 10 -11 15 -14 3
-39 22 -56 41 -40 46 -41 92 -3 201 46 132 143 257 227 295 109 48 285 27 363
-44 47 -44 7 -107 -69 -107 -39 0 -39 0 -39 40 0 39 -1 40 -33 40 -40 0 -106
-41 -163 -101 -97 -102 -189 -299 -140 -299 19 0 59 48 150 178 42 62 86 116
96 122 47 25 180 1 180 -33 0 -6 -12 -47 -26 -90 -28 -85 -24 -107 22 -107 54
0 70 15 83 77 22 112 101 216 199 261 105 48 237 10 281 -81 25 -52 28 -146 6
-227 -21 -77 -20 -80 19 -80 22 0 52 12 86 35 59 40 86 39 96 -2 10 -36 -4
-54 -66 -85 -45 -23 -66 -28 -130 -28 -69 0 -79 -2 -101 -26 -65 -70 -154 -96
-242 -70 -67 19 -114 57 -137 109 -17 37 -20 39 -71 43 -30 2 -65 5 -78 6 -22
3 -27 -5 -52 -72 -15 -41 -28 -78 -28 -81 -1 -4 43 -19 97 -34 202 -57 418
-128 673 -221 145 -53 323 -116 394 -141 284 -96 391 -97 444 -2 27 47 45 46
49 -2 6 -68 -73 -139 -185 -166 -134 -33 -333 19 -736 193 -507 220 -717 304
-757 304 -5 0 -31 -42 -57 -92 -45 -87 -112 -181 -158 -221 -88 -77 -219 -85
-285 -18 l-28 27 -28 -23 c-112 -89 -390 -119 -599 -63 -161 42 -432 193 -669
373 -72 54 -272 219 -424 349 l-53 45 -62 -22 c-83 -31 -166 -40 -211 -25 -66
21 -74 75 -20 126 42 40 113 63 209 68 l69 3 33 59 c57 101 78 184 77 304 -1
122 -24 201 -81 287 -38 58 -103 103 -147 103 -95 0 -192 -117 -257 -310 -28
-86 -32 -112 -40 -270 -38 -789 -51 -870 -139 -870 -41 0 -113 67 -136 127
-17 43 -16 50 4 186 41 267 46 332 46 557 -1 329 -32 461 -136 562 -159 155
-391 92 -504 -137 -104 -212 -78 -496 61 -644 64 -69 111 -85 220 -79 95 6
108 -3 43 -32 -251 -109 -493 25 -553 307 -19 86 -18 140 0 228 26 120 74 207
168 299 194 193 463 254 666 152 100 -51 211 -198 228 -301 3 -19 8 -35 12
-35 3 0 17 26 30 56 53 123 152 247 242 305 90 57 166 71 256 44z"/>
<path d="M5525 3522 c-44 -27 -100 -94 -131 -154 -40 -79 -35 -190 10 -220 6
-4 28 -8 48 -8 71 0 143 93 173 225 18 75 14 111 -16 150 -24 30 -43 31 -84 7z"/>
<path d="M4623 3049 c-61 -23 -117 -81 -132 -135 -15 -54 -6 -53 14 0 10 25
22 46 26 46 15 0 10 -104 -6 -150 -17 -49 -13 -60 22 -60 51 0 131 112 193
270 l20 50 -43 -1 c-23 0 -65 -9 -94 -20z"/>
</g>
</svg>
